<?xml version="1.0" encoding="utf-8"?>
<!-- Svg Vector Icons : http://www.onlinewebfonts.com/icon -->
<!DOCTYPE svg PUBLIC "-//W3C//DTD SVG 1.1//EN" "http://www.w3.org/Graphics/SVG/1.1/DTD/svg11.dtd">
<svg version="1.1" xmlns="http://www.w3.org/2000/svg" xmlns:xlink="http://www.w3.org/1999/xlink" x="0px" y="0px" viewBox="0 0 1000 1000" enable-background="new 0 0 1000 1000" xml:space="preserve">
<metadata> Svg Vector Icons : http://www.onlinewebfonts.com/icon </metadata>
<g><path d="M740.4,847.1c23.5,0,43.1,19.6,43.1,43.1s-19.6,43.1-43.1,43.1s-43.1-19.6-43.1-43.1C697.3,866.6,716.9,847.1,740.4,847.1 M740.4,807.9c-45,0-82.2,37.2-82.2,82.2s37.2,82.2,82.2,82.2c45,0,82.2-37.2,82.2-82.2C822.6,844.1,785.4,807.9,740.4,807.9L740.4,807.9z"/><path d="M360.5,847.1c23.5,0,43.1,19.6,43.1,43.1s-19.6,43.1-43.1,43.1s-43.1-19.6-43.1-43.1C316.4,866.6,336,847.1,360.5,847.1 M360.5,807.9c-45,0-82.2,37.2-82.2,82.2s37.2,82.2,82.2,82.2c45,0,82.2-37.2,82.2-82.2C442.7,844.1,405.5,807.9,360.5,807.9L360.5,807.9z"/><path d="M188.2,66.8c4.9,0,8.8,2.9,10.8,6.9l55.8,97.9h671.6c12.7,0,18.6,7.8,20.6,11.7c2,3.9,5.9,12.7,0,23.5l-186,308.4c-3.9,6.9-11.7,11.7-19.6,11.7H352.7L291,625.8c-10.8,16.6-10.8,37.2-1,53.8c9.8,16.6,26.4,27.4,46,27.4h502.2c6.9,0,12.7,5.9,12.7,12.7s-5.9,12.7-12.7,12.7H339c-20.6,0-40.1-5.9-52.9-17.6c-31.3-26.4-38.2-69.5-17.6-102.8l65.6-105.7L141.2,93.2H61.9c-6.9,0-12.7-5.9-12.7-13.7c0-6.9,5.9-12.7,12.7-12.7H188.2 M188.2,27.6H61.9C33.5,27.6,10,51.1,10,79.5c0,28.4,23.5,51.9,51.9,51.9h54.8L291,502.4l-54.8,88.1c-30.4,49-22.5,114.5,25.5,153.7c21.5,18.6,49.9,26.4,78.3,26.4h499.3c28.4,0,51.9-23.5,51.9-51.9s-23.5-51.9-51.9-51.9H337c-6.9,0-10.8-3.9-11.7-6.9c-2-2.9-2.9-8.8,0-13.7l49.9-80.3h367.1c21.5,0,42.1-11.7,53.8-30.3l185-309.4c24.5-42.1-4.9-95-53.8-95H277.3l-45-78.3C223.4,38.4,206.8,27.6,188.2,27.6L188.2,27.6z"/></g>
</svg>